<svg width="61" height="61" viewBox="0 0 61 61" fill="none" xmlns="http://www.w3.org/2000/svg">
<path d="M21.125 32.8438L28.1562 39.875L39.875 23.4688M58.625 30.5C58.625 34.1934 57.8975 37.8507 56.4841 41.263C55.0707 44.6753 52.999 47.7757 50.3874 50.3874C47.7757 52.999 44.6753 55.0707 41.263 56.4841C37.8507 57.8975 34.1934 58.625 30.5 58.625C26.8066 58.625 23.1493 57.8975 19.737 56.4841C16.3247 55.0707 13.2243 52.999 10.6126 50.3874C8.00097 47.7757 5.9293 44.6753 4.51589 41.263C3.10247 37.8507 2.375 34.1934 2.375 30.5C2.375 23.0408 5.33816 15.8871 10.6126 10.6126C15.8871 5.33816 23.0408 2.375 30.5 2.375C37.9592 2.375 45.1129 5.33816 50.3874 10.6126C55.6618 15.8871 58.625 23.0408 58.625 30.5Z" stroke="#008000" stroke-width="4" stroke-linecap="round" stroke-linejoin="round"/>
</svg>
