<svg width="30" height="30" viewBox="0 0 30 30" fill="none" xmlns="http://www.w3.org/2000/svg">
<circle cx="15" cy="15" r="15" fill="white"/>
<mask id="mask0_57_35" style="mask-type:alpha" maskUnits="userSpaceOnUse" x="5" y="5" width="20" height="20">
<rect x="5" y="5" width="20" height="20" fill="#D9D9D9"/>
</mask>
<g mask="url(#mask0_57_35)">
<path d="M9.87496 19.25C10.5833 18.7083 11.375 18.2811 12.25 17.9683C13.125 17.6561 14.0416 17.5 15 17.5C15.9583 17.5 16.875 17.6561 17.75 17.9683C18.625 18.2811 19.4166 18.7083 20.125 19.25C20.6111 18.6806 20.9897 18.0347 21.2608 17.3125C21.5313 16.5903 21.6666 15.8194 21.6666 15C21.6666 13.1528 21.0175 11.5797 19.7191 10.2808C18.4202 8.9825 16.8472 8.33333 15 8.33333C13.1527 8.33333 11.58 8.9825 10.2816 10.2808C8.98274 11.5797 8.33329 13.1528 8.33329 15C8.33329 15.8194 8.46885 16.5903 8.73996 17.3125C9.01051 18.0347 9.38885 18.6806 9.87496 19.25ZM15 15.8333C14.1805 15.8333 13.4894 15.5522 12.9266 14.99C12.3644 14.4272 12.0833 13.7361 12.0833 12.9167C12.0833 12.0972 12.3644 11.4061 12.9266 10.8433C13.4894 10.2811 14.1805 10 15 10C15.8194 10 16.5105 10.2811 17.0733 10.8433C17.6355 11.4061 17.9166 12.0972 17.9166 12.9167C17.9166 13.7361 17.6355 14.4272 17.0733 14.99C16.5105 15.5522 15.8194 15.8333 15 15.8333ZM15 23.3333C13.8472 23.3333 12.7638 23.1144 11.75 22.6767C10.7361 22.2394 9.85413 21.6458 9.10413 20.8958C8.35413 20.1458 7.76051 19.2639 7.32329 18.25C6.88551 17.2361 6.66663 16.1528 6.66663 15C6.66663 13.8472 6.88551 12.7639 7.32329 11.75C7.76051 10.7361 8.35413 9.85416 9.10413 9.10416C9.85413 8.35416 10.7361 7.76028 11.75 7.3225C12.7638 6.88528 13.8472 6.66666 15 6.66666C16.1527 6.66666 17.2361 6.88528 18.25 7.3225C19.2638 7.76028 20.1458 8.35416 20.8958 9.10416C21.6458 9.85416 22.2394 10.7361 22.6766 11.75C23.1144 12.7639 23.3333 13.8472 23.3333 15C23.3333 16.1528 23.1144 17.2361 22.6766 18.25C22.2394 19.2639 21.6458 20.1458 20.8958 20.8958C20.1458 21.6458 19.2638 22.2394 18.25 22.6767C17.2361 23.1144 16.1527 23.3333 15 23.3333Z" fill="#000F2D"/>
</g>
</svg>
