<svg width="20" height="20" viewBox="0 0 20 20" fill="none" xmlns="http://www.w3.org/2000/svg">
<path d="M12.3808 14.235C13.9334 14.0512 15.459 13.6847 16.9258 13.1433C15.6836 11.7673 14.9972 9.97875 14.9999 8.125V7.54167V7.5C14.9999 6.17392 14.4732 4.90215 13.5355 3.96447C12.5978 3.02678 11.326 2.5 9.99994 2.5C8.67386 2.5 7.40209 3.02678 6.4644 3.96447C5.52672 4.90215 4.99994 6.17392 4.99994 7.5V8.125C5.00245 9.97886 4.31576 11.7675 3.07327 13.1433C4.51744 13.6767 6.03994 14.0475 7.6191 14.235M12.3808 14.235C10.7991 14.4226 9.20078 14.4226 7.6191 14.235M12.3808 14.235C12.5009 14.6099 12.5307 15.0078 12.4679 15.3964C12.4051 15.785 12.2515 16.1533 12.0194 16.4713C11.7874 16.7893 11.4835 17.048 11.1326 17.2263C10.7817 17.4047 10.3936 17.4976 9.99994 17.4976C9.60629 17.4976 9.21821 17.4047 8.86728 17.2263C8.51635 17.048 8.2125 16.7893 7.98046 16.4713C7.74841 16.1533 7.59474 15.785 7.53195 15.3964C7.46916 15.0078 7.49902 14.6099 7.6191 14.235M2.60327 6.25C2.83825 4.85414 3.46477 3.5537 4.40994 2.5M15.5899 2.5C16.5351 3.5537 17.1616 4.85414 17.3966 6.25" stroke="white" stroke-width="1.2" stroke-linecap="round" stroke-linejoin="round"/>
</svg>
