<svg width="20" height="20" viewBox="0 0 20 20" fill="none" xmlns="http://www.w3.org/2000/svg">
<path d="M8.74875 1.25C8.08571 1.25 7.44982 1.51339 6.98098 1.98223C6.51214 2.45107 6.24875 3.08696 6.24875 3.75V13.75C6.24875 14.413 6.51214 15.0489 6.98098 15.5178C7.44982 15.9866 8.08571 16.25 8.74875 16.25H15C15.663 16.25 16.2989 15.9866 16.7678 15.5178C17.2366 15.0489 17.5 14.413 17.5 13.75V6.875H17.4975V5.5175C17.4974 5.02057 17.3 4.544 16.9487 4.1925L14.5563 1.79875C14.2048 1.44748 13.7282 1.25011 13.2312 1.25H8.7475H8.74875ZM15 15H8.74875C8.41723 15 8.09929 14.8683 7.86487 14.6339C7.63045 14.3995 7.49875 14.0815 7.49875 13.75V3.75C7.49875 3.41848 7.63045 3.10054 7.86487 2.86612C8.09929 2.6317 8.41723 2.5 8.74875 2.5H12.4987V4.375C12.4987 4.87228 12.6963 5.34919 13.0479 5.70083C13.3996 6.05246 13.8765 6.25 14.3737 6.25H16.2487V7.57625H16.25V13.75C16.25 14.0815 16.1183 14.3995 15.8839 14.6339C15.6495 14.8683 15.3315 15 15 15ZM15.9888 5H14.3725C14.2067 5 14.0478 4.93415 13.9306 4.81694C13.8133 4.69973 13.7475 4.54076 13.7475 4.375V2.75875L15.9888 5ZM3.75 5C3.75 4.66848 3.8817 4.35054 4.11612 4.11612C4.35054 3.8817 4.66848 3.75 5 3.75V13.75C5 14.7446 5.39509 15.6984 6.09835 16.4017C6.80161 17.1049 7.75544 17.5 8.75 17.5H15C15 17.8315 14.8683 18.1495 14.6339 18.3839C14.3995 18.6183 14.0815 18.75 13.75 18.75H8.4875C7.23104 18.75 6.02604 18.2509 5.13758 17.3624C4.24913 16.474 3.75 15.269 3.75 14.0125V5Z" fill="black"/>
</svg>
