<svg width="12" height="12" viewBox="0 0 12 12" fill="none" xmlns="http://www.w3.org/2000/svg">
<g clip-path="url(#clip0_94_420)">
<path d="M10.5208 11.95H7.89583C7.49304 11.95 7.16667 11.6286 7.16667 11.2321V8.64744C7.16667 8.3301 6.90562 8.07308 6.58333 8.07308H5.41667C5.09437 8.07308 4.83333 8.3301 4.83333 8.64744V11.2321C4.83333 11.6286 4.50696 11.95 4.10417 11.95H1.47917C1.07637 11.95 0.75 11.6286 0.75 11.2321V5.75066C0.75 5.09043 1.05742 4.46668 1.58388 4.05831L5.72904 0.842185C5.888 0.719272 6.112 0.719272 6.27067 0.842185L10.4164 4.05831C10.9429 4.46668 11.25 5.09014 11.25 5.75008V11.2321C11.25 11.6286 10.9236 11.95 10.5208 11.95Z" fill="#000F2D"/>
</g>
<defs>
<clipPath id="clip0_94_420">
<rect width="12" height="12" fill="white"/>
</clipPath>
</defs>
</svg>
