<svg width="20" height="20" viewBox="0 0 20 20" fill="none" xmlns="http://www.w3.org/2000/svg">
<mask id="mask0_57_46" style="mask-type:alpha" maskUnits="userSpaceOnUse" x="0" y="0" width="20" height="20">
<rect width="20" height="20" fill="#D9D9D9"/>
</mask>
<g mask="url(#mask0_57_46)">
<path d="M9.99996 18.3333C8.86107 18.3333 7.78468 18.1144 6.77079 17.6767C5.7569 17.2394 4.87163 16.6422 4.11496 15.885C3.35774 15.1283 2.76051 14.2431 2.32329 13.2292C1.88551 12.2153 1.66663 11.1389 1.66663 10C1.66663 8.84722 1.88551 7.7675 2.32329 6.76083C2.76051 5.75361 3.35774 4.87166 4.11496 4.115C4.87163 3.35778 5.7569 2.76028 6.77079 2.3225C7.78468 1.88528 8.86107 1.66666 9.99996 1.66666C11.1527 1.66666 12.2325 1.88528 13.2391 2.3225C14.2463 2.76028 15.1283 3.35778 15.885 4.115C16.6422 4.87166 17.2394 5.75361 17.6766 6.76083C18.1144 7.7675 18.3333 8.84722 18.3333 10C18.3333 11.1389 18.1144 12.2153 17.6766 13.2292C17.2394 14.2431 16.6422 15.1283 15.885 15.885C15.1283 16.6422 14.2463 17.2394 13.2391 17.6767C12.2325 18.1144 11.1527 18.3333 9.99996 18.3333ZM9.99996 16.625C10.3611 16.125 10.6736 15.6042 10.9375 15.0625C11.2013 14.5208 11.4166 13.9444 11.5833 13.3333H8.41663C8.58329 13.9444 8.79857 14.5208 9.06246 15.0625C9.32635 15.6042 9.63885 16.125 9.99996 16.625ZM7.83329 16.2917C7.58329 15.8333 7.36468 15.3575 7.17746 14.8642C6.98968 14.3714 6.83329 13.8611 6.70829 13.3333H4.24996C4.65274 14.0278 5.15607 14.6319 5.75996 15.1458C6.3644 15.6597 7.05551 16.0417 7.83329 16.2917ZM12.1666 16.2917C12.9444 16.0417 13.6352 15.6597 14.2391 15.1458C14.8436 14.6319 15.3472 14.0278 15.75 13.3333H13.2916C13.1666 13.8611 13.0105 14.3714 12.8233 14.8642C12.6355 15.3575 12.4166 15.8333 12.1666 16.2917ZM3.54163 11.6667H6.37496C6.33329 11.3889 6.3019 11.1144 6.28079 10.8433C6.26024 10.5728 6.24996 10.2917 6.24996 10C6.24996 9.70833 6.26024 9.42722 6.28079 9.15666C6.3019 8.88555 6.33329 8.61111 6.37496 8.33333H3.54163C3.47218 8.61111 3.41996 8.88555 3.38496 9.15666C3.35051 9.42722 3.33329 9.70833 3.33329 10C3.33329 10.2917 3.35051 10.5728 3.38496 10.8433C3.41996 11.1144 3.47218 11.3889 3.54163 11.6667ZM8.04163 11.6667H11.9583C12 11.3889 12.0313 11.1144 12.0525 10.8433C12.073 10.5728 12.0833 10.2917 12.0833 10C12.0833 9.70833 12.073 9.42722 12.0525 9.15666C12.0313 8.88555 12 8.61111 11.9583 8.33333H8.04163C7.99996 8.61111 7.96885 8.88555 7.94829 9.15666C7.92718 9.42722 7.91663 9.70833 7.91663 10C7.91663 10.2917 7.92718 10.5728 7.94829 10.8433C7.96885 11.1144 7.99996 11.3889 8.04163 11.6667ZM13.625 11.6667H16.4583C16.5277 11.3889 16.58 11.1144 16.615 10.8433C16.6494 10.5728 16.6666 10.2917 16.6666 10C16.6666 9.70833 16.6494 9.42722 16.615 9.15666C16.58 8.88555 16.5277 8.61111 16.4583 8.33333H13.625C13.6666 8.61111 13.6977 8.88555 13.7183 9.15666C13.7394 9.42722 13.75 9.70833 13.75 10C13.75 10.2917 13.7394 10.5728 13.7183 10.8433C13.6977 11.1144 13.6666 11.3889 13.625 11.6667ZM13.2916 6.66666H15.75C15.3472 5.97222 14.8436 5.36805 14.2391 4.85416C13.6352 4.34028 12.9444 3.95833 12.1666 3.70833C12.4166 4.16666 12.6355 4.64222 12.8233 5.135C13.0105 5.62833 13.1666 6.13889 13.2916 6.66666ZM8.41663 6.66666H11.5833C11.4166 6.05555 11.2013 5.47916 10.9375 4.9375C10.6736 4.39583 10.3611 3.875 9.99996 3.375C9.63885 3.875 9.32635 4.39583 9.06246 4.9375C8.79857 5.47916 8.58329 6.05555 8.41663 6.66666ZM4.24996 6.66666H6.70829C6.83329 6.13889 6.98968 5.62833 7.17746 5.135C7.36468 4.64222 7.58329 4.16666 7.83329 3.70833C7.05551 3.95833 6.3644 4.34028 5.75996 4.85416C5.15607 5.36805 4.65274 5.97222 4.24996 6.66666Z" fill="white"/>
</g>
</svg>
