<svg width="16" height="16" viewBox="0 0 16 16" fill="none" xmlns="http://www.w3.org/2000/svg">
<path d="M5.33333 11.3334H8.66667C8.85556 11.3334 9.014 11.2694 9.142 11.1414C9.26956 11.0139 9.33333 10.8556 9.33333 10.6667C9.33333 10.4779 9.26956 10.3194 9.142 10.1914C9.014 10.0639 8.85556 10.0001 8.66667 10.0001H5.33333C5.14444 10.0001 4.986 10.0639 4.858 10.1914C4.73044 10.3194 4.66667 10.4779 4.66667 10.6667C4.66667 10.8556 4.73044 11.0139 4.858 11.1414C4.986 11.2694 5.14444 11.3334 5.33333 11.3334ZM5.33333 8.66675H10.6667C10.8556 8.66675 11.0138 8.60275 11.1413 8.47475C11.2693 8.34719 11.3333 8.18897 11.3333 8.00008C11.3333 7.81119 11.2693 7.65275 11.1413 7.52475C11.0138 7.39719 10.8556 7.33341 10.6667 7.33341H5.33333C5.14444 7.33341 4.986 7.39719 4.858 7.52475C4.73044 7.65275 4.66667 7.81119 4.66667 8.00008C4.66667 8.18897 4.73044 8.34719 4.858 8.47475C4.986 8.60275 5.14444 8.66675 5.33333 8.66675ZM5.33333 6.00008H10.6667C10.8556 6.00008 11.0138 5.93608 11.1413 5.80808C11.2693 5.68053 11.3333 5.5223 11.3333 5.33341C11.3333 5.14453 11.2693 4.98608 11.1413 4.85808C11.0138 4.73053 10.8556 4.66675 10.6667 4.66675H5.33333C5.14444 4.66675 4.986 4.73053 4.858 4.85808C4.73044 4.98608 4.66667 5.14453 4.66667 5.33341C4.66667 5.5223 4.73044 5.68053 4.858 5.80808C4.986 5.93608 5.14444 6.00008 5.33333 6.00008ZM3.33333 14.0001C2.96667 14.0001 2.65267 13.8696 2.39133 13.6087C2.13044 13.3474 2 13.0334 2 12.6667V3.33341C2 2.96675 2.13044 2.65275 2.39133 2.39141C2.65267 2.13053 2.96667 2.00008 3.33333 2.00008H6.13333C6.27778 1.60008 6.51956 1.27786 6.85867 1.03341C7.19733 0.78897 7.57778 0.666748 8 0.666748C8.42222 0.666748 8.80289 0.78897 9.142 1.03341C9.48067 1.27786 9.72222 1.60008 9.86667 2.00008H12.6667C13.0333 2.00008 13.3473 2.13053 13.6087 2.39141C13.8696 2.65275 14 2.96675 14 3.33341V12.6667C14 13.0334 13.8696 13.3474 13.6087 13.6087C13.3473 13.8696 13.0333 14.0001 12.6667 14.0001H3.33333ZM8 2.83341C8.14444 2.83341 8.264 2.78608 8.35867 2.69141C8.45289 2.59719 8.5 2.47786 8.5 2.33341C8.5 2.18897 8.45289 2.06941 8.35867 1.97475C8.264 1.88053 8.14444 1.83341 8 1.83341C7.85556 1.83341 7.73622 1.88053 7.642 1.97475C7.54733 2.06941 7.5 2.18897 7.5 2.33341C7.5 2.47786 7.54733 2.59719 7.642 2.69141C7.73622 2.78608 7.85556 2.83341 8 2.83341Z" fill="#000F2D"/>
</svg>
