<svg width="12" height="14" viewBox="0 0 12 14" fill="none" xmlns="http://www.w3.org/2000/svg">
<path d="M3.33333 11.3334H6.66667C6.85556 11.3334 7.014 11.2694 7.142 11.1414C7.26956 11.0139 7.33333 10.8556 7.33333 10.6667C7.33333 10.4779 7.26956 10.3194 7.142 10.1914C7.014 10.0639 6.85556 10.0001 6.66667 10.0001H3.33333C3.14444 10.0001 2.986 10.0639 2.858 10.1914C2.73044 10.3194 2.66667 10.4779 2.66667 10.6667C2.66667 10.8556 2.73044 11.0139 2.858 11.1414C2.986 11.2694 3.14444 11.3334 3.33333 11.3334ZM3.33333 8.66675H8.66667C8.85556 8.66675 9.01378 8.60275 9.14133 8.47475C9.26933 8.34719 9.33333 8.18897 9.33333 8.00008C9.33333 7.81119 9.26933 7.65275 9.14133 7.52475C9.01378 7.39719 8.85556 7.33341 8.66667 7.33341H3.33333C3.14444 7.33341 2.986 7.39719 2.858 7.52475C2.73044 7.65275 2.66667 7.81119 2.66667 8.00008C2.66667 8.18897 2.73044 8.34719 2.858 8.47475C2.986 8.60275 3.14444 8.66675 3.33333 8.66675ZM3.33333 6.00008H8.66667C8.85556 6.00008 9.01378 5.93608 9.14133 5.80808C9.26933 5.68053 9.33333 5.5223 9.33333 5.33341C9.33333 5.14453 9.26933 4.98608 9.14133 4.85808C9.01378 4.73053 8.85556 4.66675 8.66667 4.66675H3.33333C3.14444 4.66675 2.986 4.73053 2.858 4.85808C2.73044 4.98608 2.66667 5.14453 2.66667 5.33341C2.66667 5.5223 2.73044 5.68053 2.858 5.80808C2.986 5.93608 3.14444 6.00008 3.33333 6.00008ZM1.33333 14.0001C0.966667 14.0001 0.652667 13.8696 0.391333 13.6087C0.130444 13.3474 0 13.0334 0 12.6667V3.33341C0 2.96675 0.130444 2.65275 0.391333 2.39141C0.652667 2.13053 0.966667 2.00008 1.33333 2.00008H4.13333C4.27778 1.60008 4.51956 1.27786 4.85867 1.03341C5.19733 0.78897 5.57778 0.666748 6 0.666748C6.42222 0.666748 6.80289 0.78897 7.142 1.03341C7.48067 1.27786 7.72222 1.60008 7.86667 2.00008H10.6667C11.0333 2.00008 11.3473 2.13053 11.6087 2.39141C11.8696 2.65275 12 2.96675 12 3.33341V12.6667C12 13.0334 11.8696 13.3474 11.6087 13.6087C11.3473 13.8696 11.0333 14.0001 10.6667 14.0001H1.33333ZM6 2.83341C6.14444 2.83341 6.264 2.78608 6.35867 2.69141C6.45289 2.59719 6.5 2.47786 6.5 2.33341C6.5 2.18897 6.45289 2.06941 6.35867 1.97475C6.264 1.88053 6.14444 1.83341 6 1.83341C5.85556 1.83341 5.73622 1.88053 5.642 1.97475C5.54733 2.06941 5.5 2.18897 5.5 2.33341C5.5 2.47786 5.54733 2.59719 5.642 2.69141C5.73622 2.78608 5.85556 2.83341 6 2.83341Z" fill="#000F2D"/>
</svg>
